<svg width="19" height="19" viewBox="0 0 19 19" fill="none" xmlns="http://www.w3.org/2000/svg">
<g clip-path="url(#clip0_2032_618)">
<path d="M16.2194 15.877L12.8549 12.5065L16.2194 15.877ZM14.7194 8.00195C14.7194 9.69271 14.0477 11.3142 12.8522 12.5098C11.6566 13.7053 10.0351 14.377 8.34436 14.377C6.65361 14.377 5.0321 13.7053 3.83655 12.5098C2.64101 11.3142 1.96936 9.69271 1.96936 8.00195C1.96936 6.3112 2.64101 4.68969 3.83655 3.49415C5.0321 2.2986 6.65361 1.62695 8.34436 1.62695C10.0351 1.62695 11.6566 2.2986 12.8522 3.49415C14.0477 4.68969 14.7194 6.3112 14.7194 8.00195V8.00195Z" stroke="#C4C4C4" stroke-width="2" stroke-linecap="round"/>
</g>
<defs>
<clipPath id="clip0_2032_618">
<rect width="18" height="18" fill="white" transform="translate(0.46936 0.126953)"/>
</clipPath>
</defs>
</svg>
